# xmcd CD database generated by RipIT
#
# Track frame offsets:
# 150
# 32952
# 55072
# 82396
# 101789
#
# Disc length: 1606 seconds
#
# Revision: 0
# Processed by: cddbd v1.5.2PL0 Copyright (c) Steve Scherf et al.
# Submitted via: RipIT 3.9.0 www.suwald.com/ripit/ripit.html on 2014-02-12 at 12:13
#
DISCID=42064405
DTITLE=Sun Kil Moon - Benji Disk 2 - Live
DYEAR=2013
DGENRE=
TTITLE0=Micheline
TTITLE1=Richard Ramirez
TTITLE2=I Love My Dad
TTITLE3=I Can't Live Without My Mother's Love
TTITLE4=Truck Driver
EXTD=
EXTT0=
EXTT1=
EXTT2=
EXTT3=
EXTT4=
PLAYORDER=
